Coordinates
version=1
nRows=18
nColumns=22
inDegrees=yes

Units are S.I. units (second, meters, Newtons, ...)
If the header above contains a line with 'inDegrees', this indicates whether rotational values are in degrees (yes) or radians (no).

endheader
time	pelvis_tilt	pelvis_list	pelvis_rotation	pelvis_tx	pelvis_ty	pelvis_tz	hip_flexion_r	hip_adduction_r	hip_rotation_r	knee_angle_r	ankle_angle_r	subtalar_angle_r	hip_flexion_l	hip_adduction_l	hip_rotation_l	knee_angle_l	ankle_angle_l	subtalar_angle_l	lumbar_extension	lumbar_bending	lumbar_rotation
      2.72000000	     16.83856813	    -14.57337871	     87.06449666	      0.23261831	      0.89314842	     -0.23910147	      7.18775657	    -11.87498807	     15.11305164	    -39.42196113	     -2.35434555	      7.02818106	     19.89950422	     -3.26369536	      9.41780014	    -20.62064626	      7.51932242	     -0.02390901	      0.43692284	      6.24154220	     17.18390195
      2.73000000	     17.40809361	    -14.35167386	     90.24596589	      0.23081820	      0.89322931	     -0.24078149	      7.67147080	    -11.71069758	     14.59214094	    -39.61193415	     -1.59132816	      6.60285753	     19.59665655	     -3.06202917	      8.52959891	    -19.61797796	      7.26146450	      0.12180090	      0.60271891	      6.54726320	     16.37967339
      2.74000000	     17.99614326	    -14.08622872	     93.39498165	      0.22893257	      0.89317978	     -0.24220715	      8.13743172	    -11.50942553	     14.10689915	    -39.72728386	     -0.82539888	      6.16182781	     19.27617922	     -2.85470752	      7.51055486	    -18.65524117	      7.03227620	      0.12338964	      0.76717089	      6.89396056	     15.55404074
      2.75000000	     18.59196293	    -13.77336922	     96.52456220	      0.22694893	      0.89295830	     -0.24338241	      8.57774460	    -11.28801701	     13.63861622	    -39.75894507	     -0.08492329	      5.81115124	     18.93830035	     -2.62421755	      6.42321662	    -17.74074777	      6.80822230	     -0.06577378	      0.93105280	      7.27392141	     14.69097617
      2.76000000	     19.17331436	    -13.41500809	     99.64314409	      0.22486917	      0.89249928	     -0.24431439	      8.99219205	    -11.07409087	     13.17452106	    -39.71481251	      0.67109520	      5.63795359	     18.57922010	     -2.34755544	      5.32295051	    -16.87474394	      6.64694028	     -0.32636300	      1.10099649	      7.66147047	     13.78414167
      2.77000000	     19.79147466	    -13.01187028	    102.75411828	      0.22273994	      0.89184077	     -0.24501508	      9.37926352	    -10.79596720	     12.73718543	    -39.55817595	      1.30744498	      5.28041365	     18.21741531	     -2.08534533	      4.23808810	    -16.06563114	      6.43123883	     -1.03756903	      1.29083676	      8.11585554	     12.84764320
      2.78000000	     20.37641245	    -12.55873263	    105.84195344	      0.22061901	      0.89090712	     -0.24548884	      9.75867345	    -10.53568304	     12.30101394	    -39.36277934	      1.97321268	      5.11022724	     17.82910349	     -1.78113507	      3.20710580	    -15.31273417	      6.31093840	     -1.76385694	      1.48143558	      8.55313781	     11.89129488
      2.79000000	     20.94499327	    -12.05867389	    108.89453734	      0.21855028	      0.88971234	     -0.24577045	     10.13727447	    -10.26084915	     11.89962464	    -39.12188910	      2.60941456	      4.98172367	     17.42791699	     -1.46729692	      2.23511754	    -14.63131716	      6.24597915	     -2.62420167	      1.68375674	      8.99400910	     10.94264973
      2.80000000	     21.48901860	    -11.51086212	    111.91010203	      0.21659707	      0.88826619	     -0.24587525	     10.52816316	     -9.97475500	     11.51752136	    -38.86000957	      3.22393737	      4.87323309	     17.01123935	     -1.15387556	      1.35409452	    -14.01671328	      6.27589385	     -3.50931394	      1.88550797	      9.42298138	     10.00425063
      2.81000000	     22.01546008	    -10.90791735	    114.89233644	      0.21477109	      0.88660784	     -0.24580542	     10.93295821	     -9.65555569	     11.17459263	    -38.58568080	      3.78079644	      4.76160916	     16.58219104	     -0.86311638	      0.60686985	    -13.46930103	      6.35075212	     -4.31040109	      2.08095594	      9.85601655	      9.05442420
      2.82000000	     22.48163500	    -10.25709347	    117.81692682	      0.21306816	      0.88473666	     -0.24560499	     11.35787211	     -9.35586154	     10.84296561	    -38.32113385	      4.36108297	      4.58503444	     16.12463054	     -0.56986237	     -0.02186327	    -12.98750047	      6.56988248	     -5.19117249	      2.25471217	     10.24607190	      8.15948690
      2.83000000	     22.88498716	     -9.55456393	    120.70954896	      0.21144419	      0.88270526	     -0.24523001	     11.78526076	     -9.06492740	     10.54718564	    -38.05754850	      4.91366193	      4.38076415	     15.63834412	     -0.28158297	     -0.45523506	    -12.56733088	      6.87514841	     -5.95763087	      2.39292466	     10.60387250	      7.24591443
      2.84000000	     23.22806006	     -8.79551154	    123.57496850	      0.20987827	      0.88056147	     -0.24467763	     12.21196559	     -8.77901107	     10.26162908	    -37.79444349	      5.45223501	      4.17825577	     15.11484809	     -0.02014289	     -0.64894325	    -12.19475018	      7.23223228	     -6.58682117	      2.48567134	     10.94216708	      6.33275108
      2.85000000	     23.46509272	     -8.01572935	    126.40338169	      0.20831012	      0.87829249	     -0.24397734	     12.63600899	     -8.56607887	      9.98654362	    -37.52446214	      5.98770350	      4.01413379	     14.54729046	      0.26057019	     -0.61133611	    -11.86234281	      7.71977198	     -7.04699623	      2.54003494	     11.20678553	      5.43115604
      2.86000000	     23.59795891	     -7.18749728	    129.15215696	      0.20687979	      0.87603708	     -0.24316871	     13.05997892	     -8.36175206	      9.80472239	    -37.28866866	      6.55734972	      3.68015666	     13.90552971	      0.50742263	     -0.32870564	    -11.56101738	      8.25412872	     -7.76704790	      2.49457292	     11.42236486	      4.58065620
      2.87000000	     23.65267344	     -6.36182975	    131.83705877	      0.20558642	      0.87376312	     -0.24230754	     13.51770674	     -8.17644395	      9.71349722	    -37.04886643	      7.09502753	      3.47844013	     13.23340103	      0.71312206	      0.24229393	    -11.26507143	      8.84879088	     -8.17966982	      2.41685663	     11.58097209	      3.76353727
      2.88000000	     23.61322226	     -5.55343881	    134.41858176	      0.20449970	      0.87153105	     -0.24147757	     14.01978432	     -8.01454831	      9.74914667	    -36.81469544	      7.61324578	      3.29863288	     12.53262976	      0.87749823	      1.02677293	    -10.98382835	      9.50400972	     -8.53086062	      2.28702175	     11.65885161	      3.01598208
      2.89000000	     23.49947707	     -4.79256781	    136.89792215	      0.20367644	      0.86935466	     -0.24069147	     14.59668675	     -7.87223249	      9.93604818	    -36.57875586	      8.09690832	      3.21641473	     11.85413069	      0.99828429	      2.02894533	    -10.73987348	     10.19637580	     -8.71414562	      2.12575829	     11.64843244	      2.33484677
